<?xml version="1.0" encoding="UTF-8" standalone="no"?>
<svg
   xmlns:dc="http://purl.org/dc/elements/1.1/"
   xmlns:cc="http://creativecommons.org/ns#"
   xmlns:rdf="http://www.w3.org/1999/02/22-rdf-syntax-ns#"
   xmlns:svg="http://www.w3.org/2000/svg"
   xmlns="http://www.w3.org/2000/svg"
   xmlns:sodipodi="http://sodipodi.sourceforge.net/DTD/sodipodi-0.dtd"
   xmlns:inkscape="http://www.inkscape.org/namespaces/inkscape"
   class="octicon octicon-law"
   viewBox="0 0 128 128"
   version="1.1"
   width="128"
   height="128"
   aria-hidden="true"
   id="svg3779"
   sodipodi:docname="license.svg"
   inkscape:version="0.92.4 5da689c313, 2019-01-14"
   inkscape:export-filename="/home/hakim/image.png"
   inkscape:export-xdpi="96"
   inkscape:export-ydpi="96">
  <metadata
     id="metadata3785">
    <rdf:RDF>
      <cc:Work
         rdf:about="">
        <dc:format>image/svg+xml</dc:format>
        <dc:type
           rdf:resource="http://purl.org/dc/dcmitype/StillImage" />
        <dc:title></dc:title>
      </cc:Work>
    </rdf:RDF>
  </metadata>
  <defs
     id="defs3783" />
  <sodipodi:namedview
     pagecolor="#ffffff"
     bordercolor="#666666"
     borderopacity="1"
     objecttolerance="10"
     gridtolerance="10"
     guidetolerance="10"
     inkscape:pageopacity="0"
     inkscape:pageshadow="2"
     inkscape:window-width="1916"
     inkscape:window-height="1040"
     id="namedview3781"
     showgrid="false"
     fit-margin-top="0"
     fit-margin-left="0"
     fit-margin-right="0"
     fit-margin-bottom="0"
     inkscape:zoom="4.695631"
     inkscape:cx="82.981102"
     inkscape:cy="63.820616"
     inkscape:window-x="1920"
     inkscape:window-y="18"
     inkscape:window-maximized="0"
     inkscape:current-layer="svg3779"
     inkscape:pagecheckerboard="false" />
  <path
     d="m 63.999999,27.428576 c -7.58857,0 -13.714284,-6.125714 -13.714284,-13.714284 C 50.285715,6.12572 56.411429,0 63.999999,0 c 7.588572,0 13.714286,6.12572 13.714286,13.714292 0,7.58857 -6.125714,13.714284 -13.714286,13.714284 z M 128,82.285721 c 0,10.148569 -8.13714,18.285709 -18.28571,18.285709 h -9.14286 c -10.148574,0 -18.285716,-8.13714 -18.285716,-18.285709 L 100.57143,45.71429 h -9.142859 c -5.028572,0 -9.142857,-4.114284 -9.142857,-9.142856 h -9.142856 v 73.142856 c 3.839999,0 9.142856,4.11429 9.142856,9.14286 h 9.142857 c 3.840001,0 9.142859,4.11428 9.142859,9.14286 H 27.428572 c 0,-5.02858 5.302856,-9.14286 9.142857,-9.14286 h 9.142857 c 0,-5.02857 5.302857,-9.14286 9.142856,-9.14286 h 0.274286 L 54.857142,36.571434 h -9.142856 c 0,5.028572 -4.114285,9.142856 -9.142857,9.142856 h -9.142857 l 18.285714,36.571431 c 0,10.148569 -8.137142,18.285709 -18.285714,18.285709 H 18.285714 C 8.1371428,100.57143 0,92.43429 0,82.285721 L 18.285714,45.71429 H 9.1428571 V 36.571434 H 36.571429 c 0,-5.028571 4.114285,-9.142858 9.142857,-9.142858 h 36.571428 c 5.028572,0 9.142857,4.114287 9.142857,9.142858 h 27.428569 v 9.142856 h -9.14285 z M 22.857143,54.857149 9.1428571,82.285721 H 36.571429 Z M 118.85714,82.285721 105.14286,54.857149 91.428571,82.285721 Z"
     id="path3777"
     style="fill:#666666;fill-rule:evenodd;stroke-width:9.14285755"
     inkscape:connector-curvature="0"
     inkscape:export-xdpi="42"
     inkscape:export-ydpi="42"
     inkscape:export-filename="/home/hakim/test.png" />
</svg>
